<svg width="1601" height="1785" viewBox="0 0 1601 1785" fill="none" xmlns="http://www.w3.org/2000/svg">
<path d="M1600.82 160.089V1313C1599.97 1366.13 1590.47 1417.17 1573.63 1464.74C1525.44 1601.28 1417.25 1709.47 1280.71 1757.66C1230.59 1775.42 1176.77 1785 1120.63 1785C1120.63 1785 1041.24 1785 960.613 1757.66C875.51 1728.78 805.235 1672.17 752.335 1616.11C679.743 1539.27 640.203 1437.02 640.203 1331.37V1023.4C640.203 1022.47 640.203 1021.54 640.28 1020.62V1007.72C640.357 1006.33 640.357 1005.02 640.357 1003.55C640.357 1002.16 640.357 1000.85 640.28 999.458C638.195 914.818 570.313 846.396 485.751 843.616C483.898 843.539 482.044 843.462 480.268 843.462C478.492 843.462 476.561 843.539 474.785 843.616C390.223 846.396 322.341 914.818 320.179 999.458C320.101 1000.85 320.101 1002.16 320.101 1003.55C320.101 1005.02 320.101 1006.33 320.179 1007.72V1542.59C320.179 1631.01 248.513 1702.68 160.089 1702.68C115.916 1702.68 75.8359 1684.76 46.8761 1655.8C17.9164 1626.84 0 1586.76 0 1542.59V995.288C0.926711 942.156 10.4255 891.11 27.2608 843.616C75.4497 707.003 183.643 598.81 320.179 550.621C370.298 532.936 424.125 523.283 480.268 523.283C480.268 523.283 559.656 523.283 640.28 550.621C725.383 579.503 795.659 636.11 848.558 692.176C921.151 769.016 960.69 871.263 960.69 976.908V1284.88C960.69 1285.81 960.69 1286.74 960.613 1287.67V1300.56C960.536 1301.95 960.536 1303.34 960.536 1304.73C960.536 1306.12 960.536 1307.43 960.613 1308.9C962.698 1393.54 1030.58 1461.89 1115.14 1464.74C1117 1464.74 1118.85 1464.74 1120.63 1464.74C1122.4 1464.74 1124.33 1464.74 1126.11 1464.74C1210.67 1461.89 1278.55 1393.54 1280.71 1308.9V160.089C1280.71 71.6657 1352.38 0 1440.8 0C1484.98 0 1524.98 17.9164 1553.94 46.8761C1582.9 75.8359 1600.82 115.916 1600.82 160.089Z" fill="#080B14"/>
</svg>
