<svg width="2084" height="640" viewBox="0 0 2084 640" fill="none" xmlns="http://www.w3.org/2000/svg">
<g clip-path="url(#clip0_1609_1356)">
<path d="M572.36 0.696402C605.53 -3.82675 633.683 13.9539 642.443 46.1619C647.642 184.196 643.249 323.244 644.679 461.642C633.709 646.077 392.396 705.97 294.915 552.573C249.137 480.566 273.599 411.211 266.424 333.148C258.833 250.51 139.906 247.052 124.724 327.689C118.746 407.078 130.313 493.278 124.101 571.887C118.434 643.218 20.5879 650.211 3.43113 582.181C3.14519 502.402 -2.65173 420.596 1.4815 340.713C12.9973 116.895 309.602 77.8499 377.891 278.402C398.453 338.815 382.986 399.488 388.991 460.108C396.373 534.428 516.003 542.851 522.268 451.01L522.372 51.7248C525.933 26.3276 546.573 4.20574 572.36 0.696402Z" fill="#231F20"/>
<path d="M1834.25 152.264C2030.9 137.811 2150.48 363.006 2043.79 523.864C1956.53 655.4 1778.25 665.72 1675.34 545.804C1551.29 401.271 1642.66 166.353 1834.25 152.264ZM1841.92 263.965C1729.69 273.323 1689.82 417.778 1774.82 489.239C1833.6 538.629 1920.32 519.783 1957.33 454.301C2005.63 368.829 1942.39 255.595 1841.92 263.991V263.965Z" fill="#231F20"/>
<path d="M1356.79 491.532C1353.23 495.068 1356.61 570.843 1354.87 583.711C1346.6 644.748 1249.27 643.578 1243.4 579.578V216.79C1245.5 186.661 1266.14 163.812 1295.13 156.793C1355.98 160.952 1430.33 145.589 1487.73 167.113C1616.74 215.438 1636.83 398.158 1519.21 471.048C1518.66 473.336 1526.38 482.174 1528.3 484.618C1553.49 516.41 1596.67 548.28 1578.03 594.057C1563.45 629.826 1512.68 636.767 1486.14 609.394C1456.25 578.59 1430.8 530.395 1401.14 498.473C1398.93 496.082 1396.59 493.82 1394.3 491.532H1356.79ZM1357.54 265.063L1355.26 267.35V389.761L1357.54 392.049H1426.46C1429.97 392.049 1443.07 388.176 1447.12 386.668C1507.43 364.13 1489 265.037 1427.99 265.037H1357.54V265.063Z" fill="#231F20"/>
<path d="M1179.6 263.176C1175.23 265.75 1163.01 271.131 1158.46 271.131H1075.02V582.526C1075.02 585.776 1069.14 598.591 1067.04 602.1C1045.44 638.65 991.653 638.286 968.075 603.686C965.19 599.475 958.639 584.008 958.639 579.459V271.131H881.303C874.727 271.131 857.7 261.85 852.241 257.327C814.002 225.717 832.589 162.887 881.225 156.284C881.927 156.336 882.603 156.18 883.305 156.206H1151.05C1153.06 156.31 1155.03 156.128 1157.01 156.284C1211.52 160.391 1226.7 235.309 1179.6 263.176Z" fill="#231F20"/>
<path d="M730.121 152.201C760.873 148.535 787.934 166.03 795.603 196.106C800.776 321.403 796.435 447.687 797.838 573.322C791.678 646.94 688.607 648.344 679.898 576.467L680.106 201.669C684.344 176.584 704.438 155.268 730.147 152.201H730.121Z" fill="#231F20"/>
</g>
<defs>
<clipPath id="clip0_1609_1356">
<rect width="2083.77" height="640" fill="white"/>
</clipPath>
</defs>
</svg>
