<svg width="1817" height="558" viewBox="0 0 1817 558" fill="none" xmlns="http://www.w3.org/2000/svg">
<g clip-path="url(#clip0_1609_1331)">
<path d="M499.027 0.607176C527.947 -3.33645 552.492 12.1661 560.13 40.2474C564.663 160.596 560.833 281.828 562.079 402.494C552.515 563.299 342.12 615.518 257.129 481.775C217.216 418.994 238.544 358.525 232.288 290.463C225.67 218.413 121.98 215.399 108.744 285.704C103.531 354.921 113.617 430.077 108.2 498.614C103.259 560.806 17.9501 566.902 2.99152 507.589C2.74221 438.032 -2.31197 366.707 1.29168 297.059C11.3321 101.918 269.934 67.8754 329.474 242.732C347.401 295.404 333.916 348.303 339.151 401.157C345.588 465.955 449.89 473.298 455.352 393.224L455.443 45.0976C458.548 22.9544 476.544 3.66688 499.027 0.607176Z" fill="#C47D8E"/>
<path d="M1599.25 132.742C1770.71 120.14 1874.96 316.483 1781.95 456.731C1705.86 571.413 1550.43 580.411 1460.7 475.859C1352.55 349.845 1432.21 145.026 1599.25 132.742ZM1605.93 230.131C1508.09 238.29 1473.32 364.237 1547.44 426.541C1598.68 469.604 1674.29 453.172 1706.56 396.08C1748.68 321.56 1693.53 222.833 1605.93 230.154V230.131Z" fill="#C47D8E"/>
<path d="M1182.95 428.518C1179.85 431.6 1182.79 497.667 1181.28 508.886C1174.07 562.102 1089.21 561.082 1084.09 505.282V188.977C1085.93 162.708 1103.92 142.786 1129.19 136.667C1182.25 140.293 1247.07 126.898 1297.11 145.665C1409.6 187.798 1427.12 347.107 1324.56 410.658C1324.08 412.652 1330.82 420.358 1332.49 422.489C1354.45 450.208 1392.1 477.994 1375.85 517.906C1363.14 549.093 1318.87 555.144 1295.73 531.278C1269.67 504.421 1247.48 462.401 1221.62 434.569C1219.69 432.484 1217.65 430.512 1215.66 428.518H1182.95ZM1183.61 231.064L1181.62 233.059V339.786L1183.61 341.781H1243.69C1246.75 341.781 1258.18 338.404 1261.71 337.089C1314.29 317.439 1298.22 231.042 1245.03 231.042H1183.61V231.064Z" fill="#C47D8E"/>
<path d="M1028.47 229.47C1024.66 231.714 1014.01 236.405 1010.04 236.405H937.287V507.904C937.287 510.737 932.165 521.91 930.329 524.97C911.495 556.836 864.602 556.519 844.046 526.352C841.53 522.681 835.818 509.195 835.818 505.229V236.405H768.391C762.657 236.405 747.812 228.314 743.053 224.371C709.713 196.811 725.918 142.03 768.323 136.274C768.935 136.319 769.525 136.183 770.137 136.206H1003.58C1005.33 136.296 1007.05 136.138 1008.77 136.274C1056.3 139.855 1069.53 205.174 1028.47 229.47Z" fill="#C47D8E"/>
<path d="M636.581 132.725C663.393 129.529 686.987 144.782 693.673 171.005C698.183 280.248 694.398 390.352 695.622 499.89C690.25 564.076 600.386 565.3 592.793 502.632L592.974 175.855C596.669 153.984 614.188 135.399 636.603 132.725H636.581Z" fill="#C47D8E"/>
</g>
<defs>
<clipPath id="clip0_1609_1331">
<rect width="1816.79" height="558" fill="white"/>
</clipPath>
</defs>
</svg>
