<svg width="1200" height="640" xmlns="http://www.w3.org/2000/svg">
<rect width="1200" height="640" fill="#1a0f14"/>
<circle cx="1000" cy="130" r="350" fill="#ecc94b" opacity="0.06"/>
<circle cx="1060" cy="210" r="210" fill="#ecc94b" opacity="0.04"/>
<polygon points="0,640 0,530 260,640" fill="#c47d8e" opacity="0.06"/>
<rect x="740" y="110" width="360" height="270" rx="24" fill="rgba(236,201,75,0.03)" stroke="rgba(236,201,75,0.08)" stroke-width="1.5"/>
<rect x="790" y="150" width="48" height="42" rx="9" fill="rgba(236,201,75,0.05)"/>
<rect x="850" y="150" width="48" height="42" rx="9" fill="rgba(236,201,75,0.12000000000000001)"/>
<rect x="910" y="150" width="48" height="42" rx="9" fill="rgba(236,201,75,0.060000000000000005)"/>
<rect x="970" y="150" width="48" height="42" rx="9" fill="rgba(236,201,75,0.13)"/>
<rect x="790" y="204" width="48" height="42" rx="9" fill="rgba(236,201,75,0.07)"/>
<rect x="850" y="204" width="48" height="42" rx="9" fill="rgba(236,201,75,0.14)"/>
<rect x="910" y="204" width="48" height="42" rx="9" fill="rgba(236,201,75,0.08)"/>
<rect x="970" y="204" width="48" height="42" rx="9" fill="rgba(236,201,75,0.15000000000000002)"/>
<rect x="790" y="258" width="48" height="42" rx="9" fill="rgba(236,201,75,0.09)"/>
<rect x="850" y="258" width="48" height="42" rx="9" fill="rgba(236,201,75,0.16)"/>
<rect x="910" y="258" width="48" height="42" rx="9" fill="rgba(236,201,75,0.1)"/>
<rect x="970" y="258" width="48" height="42" rx="9" fill="rgba(236,201,75,0.16999999999999998)"/>
<rect x="790" y="312" width="48" height="42" rx="9" fill="rgba(236,201,75,0.11)"/>
<rect x="850" y="312" width="48" height="42" rx="9" fill="rgba(236,201,75,0.05)"/>
<rect x="910" y="312" width="48" height="42" rx="9" fill="rgba(236,201,75,0.12000000000000001)"/>
<rect x="970" y="312" width="48" height="42" rx="9" fill="rgba(236,201,75,0.060000000000000005)"/>
<rect x="72" y="72" width="96" height="96" rx="24" fill="#ecc94b"/>
<g transform="translate(96,96) scale(2)" fill="#fff"><ellipse cx="12" cy="6" rx="8" ry="3.2"/><path d="M4 6v5c0 1.8 3.6 3.2 8 3.2s8-1.4 8-3.2V6" fill="none" stroke="#fff" stroke-width="2"/><path d="M4 11v5c0 1.8 3.6 3.2 8 3.2s8-1.4 8-3.2v-5" fill="none" stroke="#fff" stroke-width="2"/></g>
<text x="80" y="440" font-family="Georgia, serif" font-size="56" fill="white" font-weight="700" letter-spacing="-1">What your money</text>
<text x="80" y="516" font-family="Georgia, serif" font-size="56" fill="#F6DC85" font-weight="700" letter-spacing="-1">actually buys</text>
<text x="80" y="590" font-family="system-ui" font-size="22" fill="rgba(255,255,255,0.3)" letter-spacing="6">NITRO BLOG</text>
</svg>
