<svg width="1200" height="640" xmlns="http://www.w3.org/2000/svg">
<rect width="1200" height="640" fill="#1a0f14"/>
<circle cx="1000" cy="130" r="350" fill="#006600" opacity="0.06"/>
<circle cx="1060" cy="210" r="210" fill="#006600" opacity="0.04"/>
<polygon points="0,640 0,530 260,640" fill="#c47d8e" opacity="0.06"/>
<rect x="740" y="110" width="360" height="270" rx="24" fill="rgba(0,102,0,0.03)" stroke="rgba(0,102,0,0.08)" stroke-width="1.5"/>
<circle cx="850" cy="220" r="62" fill="rgba(0,102,0,0.1)" stroke="rgba(0,102,0,0.2)" stroke-width="1.5"/>
<text x="850" y="242" font-family="Georgia, serif" font-size="52" fill="rgba(0,102,0,0.6)" text-anchor="middle" font-weight="700">KSh</text>
<circle cx="990" cy="220" r="62" fill="rgba(0,102,0,0.06)" stroke="rgba(0,102,0,0.12)" stroke-width="1.5"/>
<text x="990" y="242" font-family="Georgia, serif" font-size="52" fill="rgba(0,102,0,0.3)" text-anchor="middle" font-weight="700">$</text>
<path d="M898,200 L942,200 M930,190 L942,200 L930,210" stroke="rgba(0,102,0,0.35)" stroke-width="3" fill="none" stroke-linecap="round" stroke-linejoin="round"/>
<path d="M942,246 L898,246 M910,236 L898,246 L910,256" stroke="rgba(0,102,0,0.18)" stroke-width="3" fill="none" stroke-linecap="round" stroke-linejoin="round"/>
<text x="920" y="340" font-family="system-ui" font-size="13" fill="rgba(0,102,0,0.3)" text-anchor="middle">no dollar card needed</text>
<rect x="72" y="72" width="96" height="96" rx="24" fill="#006600"/>
<g transform="translate(96,96) scale(2)" fill="#fff"><ellipse cx="12" cy="6" rx="8" ry="3.2"/><path d="M4 6v5c0 1.8 3.6 3.2 8 3.2s8-1.4 8-3.2V6" fill="none" stroke="#fff" stroke-width="2"/><path d="M4 11v5c0 1.8 3.6 3.2 8 3.2s8-1.4 8-3.2v-5" fill="none" stroke="#fff" stroke-width="2"/></g>
<text x="80" y="440" font-family="Georgia, serif" font-size="56" fill="white" font-weight="700" letter-spacing="-1">Paying in</text>
<text x="80" y="516" font-family="Georgia, serif" font-size="56" fill="#3FBF3F" font-weight="700" letter-spacing="-1">Kenyan shillings</text>
<text x="80" y="590" font-family="system-ui" font-size="22" fill="rgba(255,255,255,0.3)" letter-spacing="6">NITRO BLOG</text>
</svg>
