<svg width="1200" height="640" xmlns="http://www.w3.org/2000/svg">
<rect width="1200" height="640" fill="#1a0f14"/>
<circle cx="1000" cy="130" r="350" fill="#25D366" opacity="0.06"/>
<circle cx="1060" cy="210" r="210" fill="#25D366" opacity="0.04"/>
<polygon points="0,640 0,530 260,640" fill="#c47d8e" opacity="0.06"/>
<rect x="740" y="110" width="360" height="270" rx="24" fill="rgba(37,211,102,0.03)" stroke="rgba(37,211,102,0.08)" stroke-width="1.5"/>
<rect x="780" y="155" width="280" height="44" rx="10" fill="rgba(37,211,102,0.07)"/>
<circle cx="806" cy="177" r="13" fill="rgba(37,211,102,0.2)"/>
<text x="832" y="182" font-family="system-ui" font-size="14" fill="rgba(37,211,102,0.45)">2,400 members</text>
<rect x="780" y="213" width="280" height="44" rx="10" fill="rgba(37,211,102,0.07)"/>
<circle cx="806" cy="235" r="13" fill="rgba(37,211,102,0.2)"/>
<text x="832" y="240" font-family="system-ui" font-size="14" fill="rgba(37,211,102,0.45)">no algorithm</text>
<rect x="780" y="271" width="280" height="44" rx="10" fill="rgba(37,211,102,0.07)"/>
<circle cx="806" cy="293" r="13" fill="rgba(37,211,102,0.2)"/>
<text x="832" y="298" font-family="system-ui" font-size="14" fill="rgba(37,211,102,0.45)">every update delivered</text>
<rect x="780" y="330" width="97" height="34" rx="8" fill="rgba(37,211,102,0.15)"/>
<text x="828.5" y="353" font-family="system-ui" font-size="14" fill="#25D366" text-anchor="middle" font-weight="600">broadcast</text>
<rect x="72" y="72" width="96" height="96" rx="24" fill="#25D366"/>
<g transform="translate(96,96) scale(2)" fill="#fff"><path d="M21 11.5a8.4 8.4 0 01-9 8.4 8.4 8.4 0 01-3.8-.9L3 21l2-5.2A8.4 8.4 0 0112 3a8.5 8.5 0 019 8.5z"/></g>
<text x="80" y="440" font-family="Georgia, serif" font-size="56" fill="white" font-weight="700" letter-spacing="-1">Growing a</text>
<text x="80" y="516" font-family="Georgia, serif" font-size="56" fill="#5BE88F" font-weight="700" letter-spacing="-1">WhatsApp channel</text>
<text x="80" y="590" font-family="system-ui" font-size="22" fill="rgba(255,255,255,0.3)" letter-spacing="6">NITRO BLOG</text>
</svg>
